<svg xmlns="http://www.w3.org/2000/svg" height="800" width="1200" viewBox="-5.4021135 -1.7459925 46.818317 10.475955"><path d="M2.8395.02406c-.22154.01482-.4205.0388-.59019.07338-.17462.03386-.3376.08008-.4879.13546-.1531.05998-.29597.13088-.42332.20955C.45014.96175 0 1.99891 0 3.52608c0 .63042.07373 1.16805.21943 1.60056.14781.4378.3877.8121.7119 1.11336.15029.1397.30974.25965.47308.35455.16333.0949.3489.17145.55068.22718.20356.0568.43392.09737.68369.121.25223.0233.54892.03564.88441.03564h2.68005V2.89426H2.7224v1.2072h2.13148V5.7701H3.6643c-.28504 0-.52916-.01164-.72637-.03492-.1919-.02187-.36124-.06103-.50553-.11536-.13793-.05186-.25506-.12135-.35172-.20743-.09877-.08643-.19402-.20109-.2861-.34184-.07302-.11254-.13335-.22578-.17992-.33585-.04797-.11289-.08784-.23848-.11818-.375-.02787-.13018-.05044-.2847-.06456-.45967l-.00564-.07726c-.00811-.11536-.0127-.17215-.01376-.28328-.0134-1.04457.26494-1.7452.82374-2.07962.08572-.05116.16863-.09314.24553-.12418.07444-.03105.16298-.05645.26317-.0748.10055-.0194.22402-.03245.36795-.03844.1464-.00741.33479-.01059.55986-.01059h2.53047V.0043H3.5747c-.26706 0-.51506.0067-.7352.01976m4.29716 6.9542h1.34937V.0042H7.13666zm3.62955-1.62098c-.10689-.121-.18203-.2847-.22577-.48578-.04834-.2173-.07091-.52563-.07091-.94438V.0141H9.1205v4.16842c0 .2607.01094.496.0321.69956.02117.20814.05363.39617.09702.5595.04445.16687.10654.31962.18521.45473.07796.13018.17392.254.28328.3676.25047.25894.55492.44556.90629.55492.34149.10548.79057.15945 1.33244.15945h1.81786V5.77003h-1.5995c-.67909 0-1.15463-.14005-1.40899-.41275m9.86639-1.93181c0-.5835-.07232-1.09114-.21414-1.50918-.14429-.42334-.37712-.8008-.6925-1.12078-.15134-.15416-.30868-.28293-.46779-.38523-.16122-.10301-.34713-.18521-.55315-.24554-.2025-.0589-.44203-.10089-.7119-.12488-.25577-.02399-.57433-.03563-.94545-.03563h-2.77495V6.9783h2.87902c.28857 0 .53622-.00529.73272-.01516.20426-.01024.387-.02964.54363-.0575.16192-.02894.30797-.06845.43497-.11607.12947-.04939.26141-.11324.38876-.18909.4579-.2614.80716-.6657 1.03752-1.20297.22754-.52882.34326-1.1924.34326-1.97203m-1.41323.15134c0 .35384-.0307.67804-.09384.96344-.06209.27763-.16016.51258-.29245.70238-.14253.22578-.33832.39088-.58138.49389-.25012.10512-.58173.1584-.9846.1584h-1.64465V1.0869h1.57233c.40357 0 .72884.04233.96484.12558.22613.08044.41416.21414.5574.39582.1545.20426.27904.47731.36865.8121.08925.34078.1337.7299.1337 1.1564M23.70804.00356c-.07055 0-.25576.01482-.44873.15557-.22225.16158-.35384.45897-.39194.5761l-.0007-.00036-2.65853 6.24346h1.42204l.5574-1.33385c.06737-.1651.16474-.33479.20037-.36583.05362-.04163.12524-.0635.21555-.0635.03316 0 .06067.00282.08255.00493l.0067.00106 2.80882-.0014.55492 1.38182c.03175.0702.09278.19862.17356.27023.08608.07761.21767.11218.42651.11218.04128 0 .07267-.00176.07373-.00176l.89817-.0067L24.7812.00427zm1.34656 4.1328h-2.25531l.9345-2.2412.08326-.20885a17.1151 17.1151 0 01.13124-.32244zm7.8813.7669L30.02617.69815 30.01701.6872c-.00282-.00388-.31574-.36865-.49953-.5327-.07338-.0635-.21626-.14675-.60749-.14675-.0649 0-.10618.0007-.1344.00353L28.07179 0v6.97795h1.29823V2.09797l2.8836 4.12503c.09949.16122.35172.5454.54751.64805.1958.10196.45191.1069.50165.1069h.92957V.00423H32.9359zM35.66502.52857c0-.14781-.0896-.2085-.26493-.2085h-.27587v.72602h.11853V.73565h.11324l.18591.31044h.13653l-.20461-.3189c.10971-.01341.1912-.0681.1912-.19862m-.42227.10442V.42203h.14358c.07338 0 .16051.00988.16051.09843 0 .10336-.08078.11253-.17145.11253z" fill="#1e4897"/><path d="M35.3724.01408c-.34784 0-.64453.26247-.64453.65687 0 .37324.26776.65476.64452.65476.34432 0 .6417-.26035.6417-.65476 0-.3944-.29738-.65687-.6417-.65687m0 1.19839c-.31044 0-.50517-.24377-.50517-.54152 0-.3189.22119-.54116.50517-.54116.27976 0 .50377.22225.50377.54116 0 .32103-.22401.54152-.50377.54152" fill="#1e4897"/></svg>