<?xml version="1.0" encoding="utf-8"?>
<!-- Generator: Adobe Illustrator 24.3.0, SVG Export Plug-In . SVG Version: 6.00 Build 0)  -->
<svg version="1.1" id="Layer_1" xmlns="http://www.w3.org/2000/svg" xmlns:xlink="http://www.w3.org/1999/xlink" x="0px" y="0px"
	 viewBox="0 0 193.5 55.4" style="enable-background:new 0 0 193.5 55.4;" xml:space="preserve">
<style type="text/css">
	.st0{clip-path:url(#SVGID_2_);fill:#FFFFFF;}
</style>
<g>
	<defs>
		<rect id="SVGID_1_" width="193.5" height="55.4"/>
	</defs>
	<clipPath id="SVGID_2_">
		<use xlink:href="#SVGID_1_"  style="overflow:visible;"/>
	</clipPath>
	<path class="st0" d="M12.5,15.1h17.3c6.6,0,11.9,5.3,11.9,11.9c0,1.2-0.2,2.4-0.5,3.5c2.2-3.1,3.5-6.9,3.5-11C44.7,8.7,36,0,25.2,0
		H0C0,0-0.3,12.6,12.5,15.1"/>
	<path class="st0" d="M39.9,31.4c0.3-1.1,0.5-2.3,0.5-3.5c0-3.1-1.2-5.9-3.1-8c0,0-2.2,3.2-10.1,3.2H12.8C12.8,23.1,0,23,0,37.2v8.6
		c0,0,3.8-7.8,14.6-7.8H29C29,38,36.2,38.4,39.9,31.4"/>
	<path class="st0" d="M0,55.4V48c0,0,3.5-7.7,12.4-9h2.7v9.1c0,0-0.6,5.3-6.6,7.3H0z"/>
	<rect x="51.3" y="47.2" class="st0" width="2.1" height="8.1"/>
	<polygon class="st0" points="60.8,47.2 64.4,52.1 64.4,47.2 66.4,47.2 66.4,55.3 64.5,55.3 60.9,50.5 60.9,55.3 58.9,55.3 
		58.9,47.2 	"/>
	<path class="st0" d="M79.6,51.2c0,2.4-1.8,4-4.4,4h-3.4v-8.1h3.5C77.9,47.2,79.6,48.9,79.6,51.2 M77.5,51.3c0-1.4-0.9-2.3-2.2-2.3
		H74v4.7h1.4C76.6,53.6,77.5,52.7,77.5,51.3"/>
	<path class="st0" d="M88.2,53.6c0.9,0,1.6-0.6,1.6-1.7v-4.7h2.1v4.7c0,2.1-1.4,3.5-3.7,3.5c-2.3,0-3.7-1.3-3.7-3.5v-4.7h2.1v4.7
		C86.6,52.9,87.3,53.6,88.2,53.6"/>
	<path class="st0" d="M100.2,48.8c-0.5,0-0.8,0.2-0.8,0.6c0,1.3,4.2,0.6,4.2,3.5c0,1.6-1.4,2.5-3.2,2.5c-1.3,0-2.8-0.5-3.7-1.3
		l0.8-1.7c0.8,0.7,2.1,1.2,2.9,1.2c0.6,0,1-0.2,1-0.7c0-1.4-4.3-0.5-4.3-3.4c0-1.5,1.3-2.5,3.2-2.5c1.2,0,2.4,0.4,3.2,0.9l-0.8,1.7
		C102,49.2,100.9,48.8,100.2,48.8"/>
	<polygon class="st0" points="114.8,47.2 114.8,49 112.4,49 112.4,55.3 110.3,55.3 110.3,49 107.9,49 107.9,47.2 	"/>
	<path class="st0" d="M124.5,55.3l-1.2-2.2h0h-1.5v2.2h-2.1v-8.1h3.6c2.1,0,3.4,1,3.4,2.8c0,1.2-0.5,2.1-1.4,2.6l1.7,2.6H124.5z
		 M121.7,51.4h1.5c0.9,0,1.3-0.4,1.3-1.3c0-0.8-0.5-1.2-1.3-1.2h-1.5V51.4z"/>
	<rect x="131.9" y="47.2" class="st0" width="2.1" height="8.1"/>
	<path class="st0" d="M144.8,53.9h-3.5l-0.6,1.4h-2.2l3.5-8.1h2.2l3.4,8.1h-2.2L144.8,53.9z M144.2,52.2l-1.1-2.9l-1.1,2.9H144.2z"
		/>
	<polygon class="st0" points="154.4,47.2 154.4,53.5 157.8,53.5 157.8,55.3 152.3,55.3 152.3,47.2 	"/>
	<rect x="186.2" y="0.1" class="st0" width="7.3" height="21.1"/>
	<polygon class="st0" points="168.7,0.1 160.3,0.1 160.3,6.6 168.7,6.6 168.7,21.2 176,21.2 176,6.6 184.4,6.6 184.4,0.1 176,0.1 	
		"/>
	<path class="st0" d="M110,21.2l8.2-10.7l8.2,10.7h9.9l-15-19.5c-0.7-1-1.9-1.5-3.1-1.5c-1.2,0-2.4,0.6-3.1,1.5l-15,19.5H110z"/>
	<path class="st0" d="M132.8,44.3l8.2-10.7l8.2,10.7h9.9l-15-19.5c-0.7-1-1.9-1.5-3.1-1.5c-1.2,0-2.4,0.6-3.1,1.5l-15,19.5H132.8z"
		/>
	<path class="st0" d="M126.4,23.3L118.2,34L110,23.3h-9.9l15,19.5c0.7,1,1.9,1.5,3.1,1.5c1.2,0,2.4-0.6,3.1-1.5l15-19.5H126.4z"/>
	<polygon class="st0" points="86.7,14.8 86.7,0.2 79.3,0.2 79.3,14.8 79.3,21.2 86.7,21.2 98.4,21.2 103.3,14.8 	"/>
	<path class="st0" d="M68,23.3v9.5l-10.7-9.1c-1.1-0.9-2.6-1.1-3.9-0.5c-1.3,0.6-2.1,1.9-2.1,3.3v17.3c0,0.2,0,0.4,0.1,0.7h7.3
		c0-0.2,0.1-0.4,0.1-0.7v-9.3l10.7,9.1c1.1,0.9,2.6,1.1,3.9,0.5c1.3-0.6,2.1-1.9,2.1-3.3V23.3H68z"/>
	<path class="st0" d="M93.6,43.9h-6.2c-5.5,0-9.9-4.6-9.9-10.3s4.5-10.3,9.9-10.3h6.2c5.5,0,9.9,4.6,9.9,10.3S99.1,43.9,93.6,43.9
		 M87.4,29.7c-2,0-3.6,1.8-3.6,4c0,2.2,1.6,3.9,3.6,3.9h6.2c2,0,3.6-1.8,3.6-3.9c0-2.2-1.6-4-3.6-4H87.4z"/>
	<path class="st0" d="M152.7,8h-2.8v0h-10.6c-0.7,0-1.3-0.5-1.3-1.1c0-0.6,0.6-1.1,1.3-1.1h19.1V0.4h-19.1c-3.7,0-6.7,2.9-6.7,6.5
		c0,3.6,3,6.5,6.7,6.5h4.9l0,0h8.4c0.7,0,1.3,0.5,1.3,1.1c0,0.6-0.6,1.1-1.3,1.1H134l3.9,5.4h14.9c3.7,0,6.7-2.9,6.7-6.5
		C159.4,10.9,156.4,8,152.7,8"/>
	<path class="st0" d="M69.9,0.3H51.3h-0.2c0,0-0.3,4.2,4,5.9h14.8c0.9,0,1.6,0.7,1.6,1.5c0,0.8-0.7,1.5-1.6,1.5H55.7
		c0,0-4.4,0.5-4.4,5.9v6.3h7.2v-6.3h11.4c4.1,0,7.5-3.3,7.5-7.3C77.4,3.6,74,0.3,69.9,0.3"/>
</g>
</svg>
